<?xml version="1.0" standalone="no"?>
<!DOCTYPE svg PUBLIC "-//W3C//DTD SVG 20010904//EN"
 "http://www.w3.org/TR/2001/REC-SVG-20010904/DTD/svg10.dtd">
<svg version="1.0" xmlns="http://www.w3.org/2000/svg"
 width="220.000000pt" height="220.000000pt" viewBox="0 0 220.000000 220.000000"
 preserveAspectRatio="xMidYMid meet">
<metadata>
Created by potrace 1.11, written by Peter Selinger 2001-2013
</metadata>
<g transform="translate(0.000000,220.000000) scale(0.100000,-0.100000)"
fill="#000000" stroke="none">
<path d="M932 2120 c-110 -29 -206 -84 -288 -165 -111 -110 -120 -137 -226
-606 -84 -374 -91 -412 -91 -514 0 -135 19 -217 78 -340 96 -200 278 -351 496
-411 90 -26 308 -26 398 0 219 61 398 209 496 411 59 123 78 205 78 340 0 102
-7 138 -88 495 -48 212 -96 409 -107 437 -48 129 -149 237 -283 304 -140 69
-314 88 -463 49z m332 -161 c118 -40 212 -121 260 -224 19 -41 56 -176 56
-206 0 -16 -32 -39 -55 -39 -32 0 -50 30 -65 105 -7 33 -18 75 -25 92 -23 55
-100 128 -168 159 -56 26 -72 29 -167 29 -97 0 -110 -2 -170 -31 -75 -36 -135
-92 -160 -149 -10 -22 -34 -114 -54 -205 -20 -91 -39 -173 -42 -183 -4 -12 21
0 75 37 114 78 213 109 351 108 153 0 254 -34 378 -127 191 -144 282 -404 223
-637 -40 -155 -127 -281 -256 -367 -164 -110 -368 -136 -552 -71 -191 67 -352
246 -398 441 -30 128 -22 190 74 620 50 224 98 414 110 438 59 115 190 205
336 231 68 12 178 3 249 -21z"/>
<path d="M967 1335 c-198 -54 -349 -226 -379 -430 -36 -255 131 -503 383 -570
159 -43 342 1 468 112 233 205 234 571 2 775 -126 109 -319 156 -474 113z
m266 -214 c197 -95 243 -355 90 -508 -82 -82 -214 -114 -322 -78 -129 42 -215
164 -215 301 0 63 4 81 34 140 39 77 104 134 180 159 64 21 175 14 233 -14z"/>
<path d="M1043 1065 c-41 -50 -42 -65 -3 -65 35 0 43 13 38 66 l-3 39 -32 -40z"/>
<path d="M1122 1055 c3 -48 4 -50 36 -53 17 -2 32 -1 32 3 0 14 -30 61 -50 80
l-21 19 3 -49z"/>
<path d="M929 1040 l-44 -39 36 -1 c33 0 37 4 52 40 8 22 12 40 7 40 -4 0 -27
-18 -51 -40z"/>
<path d="M1227 1040 c15 -36 19 -40 51 -40 l35 0 -24 26 c-13 14 -36 32 -51
40 l-26 14 15 -40z"/>
<path d="M852 943 c-6 -10 -13 -33 -17 -50 l-7 -33 50 0 c54 0 62 9 62 73 0
25 -3 27 -40 27 -27 0 -42 -5 -48 -17z"/>
<path d="M986 929 c-13 -65 -11 -69 44 -69 l50 0 0 50 0 50 -44 0 c-41 0 -44
-2 -50 -31z"/>
<path d="M1120 910 l0 -50 50 0 c55 0 57 4 44 69 -6 29 -9 31 -50 31 l-44 0 0
-50z"/>
<path d="M1260 913 l5 -48 53 -3 54 -3 -7 33 c-13 59 -22 68 -68 68 l-43 0 6
-47z"/>
<path d="M835 778 c13 -58 22 -68 65 -68 37 0 40 2 40 28 0 63 -8 72 -62 72
l-50 0 7 -32z"/>
<path d="M980 791 c0 -10 3 -33 6 -50 6 -29 9 -31 50 -31 l44 0 0 50 0 50 -50
0 c-42 0 -50 -3 -50 -19z"/>
<path d="M1120 760 l0 -50 44 0 c41 0 44 2 50 31 13 65 11 69 -44 69 l-50 0 0
-50z"/>
<path d="M1265 798 c-2 -7 -5 -30 -7 -50 l-4 -38 43 0 c46 0 55 9 68 68 l7 32
-52 0 c-32 0 -52 -5 -55 -12z"/>
<path d="M900 661 c0 -11 70 -71 82 -71 5 0 -1 18 -12 40 -16 30 -26 40 -45
40 -14 0 -25 -4 -25 -9z"/>
<path d="M1010 659 c0 -17 42 -77 58 -84 10 -4 12 7 10 43 -3 45 -4 47 -35 50
-22 2 -33 -1 -33 -9z"/>
<path d="M1127 663 c-4 -3 -7 -27 -7 -51 l0 -45 21 19 c19 17 49 65 49 79 0 7
-55 6 -63 -2z"/>
<path d="M1243 658 c-16 -22 -33 -68 -25 -68 12 0 82 60 82 71 0 14 -46 11
-57 -3z"/>
</g>
</svg>
